<?xml version="1.0" encoding="UTF-8"?>
<svg id="Ebene_1" xmlns="http://www.w3.org/2000/svg" xmlns:xlink="http://www.w3.org/1999/xlink" version="1.1" viewBox="0 0 537.64 69.26">
  <!-- Generator: Adobe Illustrator 30.1.0, SVG Export Plug-In . SVG Version: 2.1.1 Build 136)  -->
  <defs>
    <style>
      .st0 {
        fill: #e51331;
      }

      .st1 {
        fill: url(#Unbenannter_Verlauf);
      }

      .st2 {
        fill: url(#Unbenannter_Verlauf_2);
      }

      .st3 {
        fill: url(#Unbenannter_Verlauf_4);
      }

      .st4 {
        fill: url(#Unbenannter_Verlauf_3);
      }

      .st5 {
        fill: #a9ff45;
      }

      .st6 {
        fill: #fff;
      }

      .st7 {
        fill: #7200ea;
      }

      .st8 {
        fill: #00b2a9;
      }
    </style>
    <linearGradient id="Unbenannter_Verlauf" data-name="Unbenannter Verlauf" x1="29.54" y1="66.32" x2="29.54" y2=".73" gradientTransform="translate(0 70) scale(1 -1)" gradientUnits="userSpaceOnUse">
      <stop offset="0" stop-color="#30df14"/>
      <stop offset=".31" stop-color="#30df14"/>
      <stop offset=".44" stop-color="#2fd814"/>
      <stop offset=".63" stop-color="#2dc414"/>
      <stop offset=".86" stop-color="#2aa516"/>
      <stop offset="1" stop-color="#288f17"/>
    </linearGradient>
    <linearGradient id="Unbenannter_Verlauf_2" data-name="Unbenannter Verlauf 2" x1="94.03" y1="53.66" x2="94.03" y2=".94" gradientTransform="translate(0 70) scale(1 -1)" gradientUnits="userSpaceOnUse">
      <stop offset="0" stop-color="#30df14"/>
      <stop offset=".31" stop-color="#30df14"/>
      <stop offset=".44" stop-color="#2fd814"/>
      <stop offset=".63" stop-color="#2dc414"/>
      <stop offset=".86" stop-color="#2aa516"/>
      <stop offset="1" stop-color="#288f17"/>
    </linearGradient>
    <linearGradient id="Unbenannter_Verlauf_3" data-name="Unbenannter Verlauf 3" x1="153.8" y1="53.66" x2="153.8" y2=".94" gradientTransform="translate(0 70) scale(1 -1)" gradientUnits="userSpaceOnUse">
      <stop offset="0" stop-color="#30df14"/>
      <stop offset=".31" stop-color="#30df14"/>
      <stop offset=".44" stop-color="#2fd814"/>
      <stop offset=".63" stop-color="#2dc414"/>
      <stop offset=".86" stop-color="#2aa516"/>
      <stop offset="1" stop-color="#288f17"/>
    </linearGradient>
    <linearGradient id="Unbenannter_Verlauf_4" data-name="Unbenannter Verlauf 4" x1="212.41" y1="70" x2="212.41" y2=".94" gradientTransform="translate(0 70) scale(1 -1)" gradientUnits="userSpaceOnUse">
      <stop offset="0" stop-color="#30df14"/>
      <stop offset=".31" stop-color="#30df14"/>
      <stop offset=".44" stop-color="#2fd814"/>
      <stop offset=".63" stop-color="#2dc414"/>
      <stop offset=".86" stop-color="#2aa516"/>
      <stop offset="1" stop-color="#288f17"/>
    </linearGradient>
  </defs>
  <path class="st1" d="M59.06,57.53c0,2.11-.37,3.67-1.12,4.69s-1.94,2.01-3.57,2.96c-.95.55-2.14,1.07-3.57,1.58s-2.99.95-4.69,1.33c-1.7.37-3.49.66-5.35.87-1.87.2-3.72.31-5.56.31-4.9,0-9.49-.63-13.77-1.89s-8.01-3.21-11.17-5.87c-3.16-2.65-5.66-6.03-7.5-10.15C.92,47.25,0,42.33,0,36.62,0,31.25.93,26.52,2.76,22.44c1.84-4.08,4.35-7.51,7.55-10.3,3.2-2.79,6.94-4.9,11.22-6.32,4.28-1.43,8.91-2.14,13.87-2.14,6.46,0,11.58,1.02,15.35,3.06s5.66,4.73,5.66,8.06c0,1.77-.44,3.3-1.33,4.59-.88,1.29-1.9,2.31-3.06,3.06-1.7-1.02-3.84-2-6.43-2.96-2.58-.95-5.54-1.43-8.87-1.43-2.72,0-5.2.44-7.45,1.33-2.24.88-4.18,2.13-5.81,3.72-1.63,1.6-2.89,3.54-3.77,5.81-.88,2.28-1.33,4.81-1.33,7.6,0,3.06.42,5.75,1.27,8.06s2.04,4.23,3.57,5.76c1.53,1.53,3.33,2.69,5.41,3.47,2.07.78,4.37,1.17,6.88,1.17,1.5,0,2.81-.14,3.93-.41s1.99-.58,2.6-.92v-9.79h-10.91c-.41-.75-.8-1.73-1.17-2.96-.37-1.22-.56-2.52-.56-3.88,0-2.45.56-4.22,1.68-5.3,1.12-1.09,2.57-1.63,4.33-1.63h17.24c2.04,0,3.62.56,4.74,1.68s1.68,2.7,1.68,4.74v21.01h.01Z"/>
  <path class="st2" d="M120.77,42.64c0,4.08-.63,7.75-1.89,11.02-1.26,3.26-3.06,6.04-5.41,8.31-2.35,2.28-5.15,4.03-8.42,5.25-3.26,1.22-6.94,1.84-11.02,1.84s-7.75-.6-11.02-1.78c-3.26-1.19-6.07-2.92-8.42-5.2-2.35-2.28-4.15-5.05-5.41-8.31-1.26-3.26-1.89-6.97-1.89-11.12s.65-7.65,1.94-10.91c1.29-3.26,3.11-6.03,5.46-8.31s5.15-4.03,8.42-5.25c3.26-1.22,6.9-1.84,10.91-1.84s7.65.63,10.91,1.89,6.07,3.03,8.42,5.3c2.35,2.28,4.16,5.05,5.46,8.31,1.29,3.26,1.94,6.87,1.94,10.81h.02ZM94.04,29.89c-2.86,0-5.07,1.11-6.63,3.31-1.56,2.21-2.35,5.35-2.35,9.44s.78,7.5,2.35,9.64c1.56,2.14,3.77,3.21,6.63,3.21s5.06-1.09,6.63-3.26c1.56-2.18,2.35-5.37,2.35-9.59s-.78-7.22-2.35-9.44c-1.56-2.21-3.77-3.31-6.63-3.31Z"/>
  <path class="st4" d="M180.54,42.64c0,4.08-.63,7.75-1.89,11.02-1.26,3.26-3.06,6.04-5.41,8.31-2.35,2.28-5.15,4.03-8.42,5.25-3.26,1.22-6.94,1.84-11.02,1.84s-7.75-.6-11.02-1.78c-3.26-1.19-6.07-2.92-8.42-5.2-2.35-2.28-4.15-5.05-5.41-8.31-1.26-3.26-1.89-6.97-1.89-11.12s.65-7.65,1.94-10.91c1.29-3.26,3.11-6.03,5.46-8.31s5.15-4.03,8.42-5.25c3.26-1.22,6.9-1.84,10.91-1.84s7.65.63,10.91,1.89c3.26,1.26,6.07,3.03,8.42,5.3,2.35,2.28,4.16,5.05,5.46,8.31,1.29,3.26,1.94,6.87,1.94,10.81h.02,0ZM153.81,29.89c-2.86,0-5.07,1.11-6.63,3.31-1.56,2.21-2.35,5.35-2.35,9.44s.78,7.5,2.35,9.64c1.56,2.14,3.77,3.21,6.63,3.21s5.06-1.09,6.63-3.26c1.56-2.18,2.35-5.37,2.35-9.59s-.78-7.22-2.35-9.44c-1.56-2.21-3.77-3.31-6.63-3.31Z"/>
  <path class="st3" d="M213.08,16.32c2.92,0,5.44.37,7.55,1.12V.92c.75-.2,1.82-.41,3.21-.61,1.39-.2,2.91-.31,4.54-.31,3.4,0,5.85.56,7.34,1.68,1.5,1.12,2.24,3.28,2.24,6.48v48.35c0,3.2-1.5,5.75-4.49,7.65-1.97,1.29-4.51,2.43-7.6,3.42-3.09.98-6.68,1.48-10.76,1.48-8.91,0-15.85-2.19-20.81-6.58-4.96-4.39-7.45-10.93-7.45-19.64,0-4.49.68-8.4,2.04-11.73,1.36-3.33,3.21-6.08,5.56-8.26,2.35-2.18,5.12-3.81,8.31-4.9,3.2-1.09,6.63-1.63,10.3-1.63,0,0,.02,0,.02,0ZM220.73,31.01c-.75-.34-1.56-.61-2.45-.82-.88-.2-1.8-.31-2.75-.31-3.54,0-6.27,1.07-8.21,3.21s-2.91,5.39-2.91,9.74.92,7.45,2.75,9.49,4.45,3.06,7.85,3.06c1.22,0,2.35-.14,3.37-.41,1.02-.27,1.8-.58,2.35-.92v-23.05h0Z"/>
  <path class="st6" d="M306.1,57.53c0,2.11-.37,3.67-1.12,4.69s-1.94,2.01-3.57,2.96c-.95.55-2.14,1.07-3.57,1.58s-2.99.95-4.69,1.33c-1.7.37-3.49.66-5.35.87-1.87.2-3.72.31-5.56.31-4.9,0-9.49-.63-13.77-1.89s-8.01-3.21-11.17-5.87c-3.16-2.65-5.66-6.03-7.5-10.15-1.84-4.11-2.75-9.03-2.75-14.74,0-5.37.92-10.1,2.75-14.18,1.84-4.08,4.35-7.51,7.55-10.3,3.2-2.79,6.94-4.9,11.22-6.32,4.28-1.43,8.91-2.14,13.87-2.14,6.46,0,11.58,1.02,15.35,3.06s5.66,4.73,5.66,8.06c0,1.77-.44,3.3-1.33,4.59-.88,1.29-1.9,2.31-3.06,3.06-1.7-1.02-3.84-2-6.43-2.96-2.58-.95-5.54-1.43-8.87-1.43-2.72,0-5.2.44-7.45,1.33-2.24.88-4.18,2.13-5.81,3.72-1.63,1.6-2.89,3.54-3.77,5.81-.88,2.28-1.33,4.81-1.33,7.6,0,3.06.42,5.75,1.27,8.06.85,2.31,2.04,4.23,3.57,5.76,1.53,1.53,3.33,2.69,5.41,3.47,2.07.78,4.37,1.17,6.88,1.17,1.5,0,2.81-.14,3.93-.41s1.99-.58,2.6-.92v-9.79h-10.91c-.41-.75-.8-1.73-1.17-2.96-.37-1.22-.56-2.52-.56-3.88,0-2.45.56-4.22,1.68-5.3,1.12-1.09,2.57-1.63,4.33-1.63h17.24c2.04,0,3.62.56,4.74,1.68s1.68,2.7,1.68,4.74v21.01h.01Z"/>
  <path class="st6" d="M367.81,42.64c0,4.08-.63,7.75-1.89,11.02-1.26,3.26-3.06,6.04-5.41,8.31-2.35,2.28-5.15,4.03-8.42,5.25-3.26,1.22-6.94,1.84-11.02,1.84s-7.75-.6-11.02-1.78c-3.26-1.19-6.07-2.92-8.42-5.2-2.35-2.28-4.15-5.05-5.41-8.31-1.26-3.26-1.89-6.97-1.89-11.12s.65-7.65,1.94-10.91c1.29-3.26,3.11-6.03,5.46-8.31s5.15-4.03,8.42-5.25c3.26-1.22,6.9-1.84,10.91-1.84s7.65.63,10.91,1.89,6.07,3.03,8.42,5.3c2.35,2.28,4.16,5.05,5.46,8.31,1.29,3.26,1.94,6.87,1.94,10.81h.02ZM341.09,29.89c-2.86,0-5.07,1.11-6.63,3.31-1.56,2.21-2.35,5.35-2.35,9.44s.78,7.5,2.35,9.64c1.56,2.14,3.77,3.21,6.63,3.21s5.06-1.09,6.63-3.26c1.56-2.18,2.35-5.37,2.35-9.59s-.78-7.22-2.35-9.44c-1.56-2.21-3.77-3.31-6.63-3.31Z"/>
  <path class="st6" d="M427.58,42.64c0,4.08-.63,7.75-1.89,11.02-1.26,3.26-3.06,6.04-5.41,8.31-2.35,2.28-5.15,4.03-8.42,5.25-3.26,1.22-6.94,1.84-11.02,1.84s-7.75-.6-11.02-1.78c-3.26-1.19-6.07-2.92-8.42-5.2-2.35-2.28-4.15-5.05-5.41-8.31-1.26-3.26-1.89-6.97-1.89-11.12s.65-7.65,1.94-10.91c1.29-3.26,3.11-6.03,5.46-8.31s5.15-4.03,8.42-5.25c3.26-1.22,6.9-1.84,10.91-1.84s7.65.63,10.91,1.89,6.07,3.03,8.42,5.3c2.35,2.28,4.16,5.05,5.46,8.31,1.29,3.26,1.94,6.87,1.94,10.81h.02ZM400.86,29.89c-2.86,0-5.07,1.11-6.63,3.31-1.56,2.21-2.35,5.35-2.35,9.44s.78,7.5,2.35,9.64c1.56,2.14,3.77,3.21,6.63,3.21s5.06-1.09,6.63-3.26c1.56-2.18,2.35-5.37,2.35-9.59s-.78-7.22-2.35-9.44c-1.56-2.21-3.77-3.31-6.63-3.31Z"/>
  <path class="st6" d="M460.12,16.32c2.92,0,5.44.37,7.55,1.12V.92c.75-.2,1.82-.41,3.21-.61,1.39-.2,2.91-.31,4.54-.31,3.4,0,5.85.56,7.34,1.68,1.5,1.12,2.24,3.28,2.24,6.48v48.35c0,3.2-1.5,5.75-4.49,7.65-1.97,1.29-4.51,2.43-7.6,3.42-3.09.98-6.68,1.48-10.76,1.48-8.91,0-15.85-2.19-20.81-6.58s-7.45-10.93-7.45-19.64c0-4.49.68-8.4,2.04-11.73,1.36-3.33,3.21-6.08,5.56-8.26s5.12-3.81,8.31-4.9c3.2-1.09,6.63-1.63,10.3-1.63h.02ZM467.77,31.01c-.75-.34-1.56-.61-2.45-.82-.88-.2-1.8-.31-2.75-.31-3.54,0-6.27,1.07-8.21,3.21s-2.91,5.39-2.91,9.74.92,7.45,2.75,9.49,4.45,3.06,7.85,3.06c1.22,0,2.35-.14,3.37-.41s1.8-.58,2.35-.92v-23.05h0Z"/>
  <path class="st6" d="M537.64,52.63c0,5.17-1.94,9.22-5.81,12.14-3.87,2.92-9.59,4.39-17.14,4.39-2.86,0-5.51-.2-7.96-.61-2.45-.41-4.54-1.04-6.27-1.89-1.73-.85-3.09-1.92-4.08-3.21s-1.48-2.82-1.48-4.59c0-1.63.34-3.01,1.02-4.13.68-1.12,1.5-2.06,2.45-2.8,1.97,1.09,4.23,2.06,6.78,2.91s5.49,1.28,8.82,1.28c2.11,0,3.72-.31,4.85-.92,1.12-.61,1.68-1.43,1.68-2.45,0-.95-.41-1.7-1.22-2.24-.82-.54-2.18-.98-4.08-1.33l-3.06-.61c-5.92-1.16-10.32-2.97-13.21-5.46-2.89-2.48-4.33-6.03-4.33-10.66,0-2.52.54-4.79,1.63-6.83s2.62-3.74,4.59-5.1,4.34-2.41,7.09-3.16,5.8-1.12,9.13-1.12c2.52,0,4.88.19,7.09.56,2.21.37,4.13.94,5.76,1.68,1.63.75,2.92,1.72,3.88,2.91.95,1.19,1.43,2.6,1.43,4.23s-.29,2.91-.87,4.03-1.31,2.06-2.19,2.81c-.55-.34-1.36-.7-2.45-1.07-1.09-.37-2.28-.71-3.57-1.02-1.29-.31-2.6-.56-3.93-.76s-2.53-.31-3.62-.31c-2.24,0-3.98.25-5.2.77-1.22.51-1.84,1.31-1.84,2.4,0,.75.34,1.36,1.02,1.84s1.97.92,3.88,1.33l3.16.71c6.53,1.5,11.17,3.55,13.92,6.17,2.75,2.62,4.13,6,4.13,10.15v-.04Z"/>
  <path class="st7" d="M88.59,364.65c0,2.11-.37,3.67-1.12,4.69s-1.94,2.01-3.57,2.96c-.95.55-2.14,1.07-3.57,1.58s-2.99.95-4.69,1.33c-1.7.37-3.49.66-5.35.87-1.87.2-3.72.31-5.56.31-4.9,0-9.49-.63-13.77-1.89s-8.01-3.21-11.17-5.87c-3.16-2.65-5.66-6.03-7.5-10.15-1.84-4.11-2.75-9.03-2.75-14.74,0-5.37.92-10.1,2.75-14.18,1.84-4.08,4.35-7.51,7.55-10.3,3.2-2.79,6.94-4.9,11.22-6.32,4.28-1.43,8.91-2.14,13.87-2.14,6.46,0,11.58,1.02,15.35,3.06s5.66,4.73,5.66,8.06c0,1.77-.44,3.3-1.33,4.59-.88,1.29-1.9,2.31-3.06,3.06-1.7-1.02-3.84-2-6.43-2.96-2.58-.95-5.54-1.43-8.87-1.43-2.72,0-5.2.44-7.45,1.33-2.24.88-4.18,2.13-5.81,3.72-1.63,1.6-2.89,3.54-3.77,5.81-.88,2.28-1.33,4.81-1.33,7.6,0,3.06.42,5.75,1.27,8.06s2.04,4.23,3.57,5.76,3.33,2.69,5.41,3.47c2.07.78,4.37,1.17,6.88,1.17,1.5,0,2.81-.14,3.93-.41s1.99-.58,2.6-.92v-9.79h-10.91c-.41-.75-.8-1.73-1.17-2.96-.37-1.22-.56-2.52-.56-3.88,0-2.45.56-4.22,1.68-5.3,1.12-1.09,2.57-1.63,4.33-1.63h17.24c2.04,0,3.62.56,4.74,1.68s1.68,2.7,1.68,4.74v21.01h.01Z"/>
  <path class="st5" d="M88.59,542.46c0,2.11-.37,3.67-1.12,4.69s-1.94,2.01-3.57,2.96c-.95.55-2.14,1.07-3.57,1.58s-2.99.95-4.69,1.33c-1.7.37-3.49.66-5.35.87-1.87.2-3.72.31-5.56.31-4.9,0-9.49-.63-13.77-1.89s-8.01-3.21-11.17-5.87c-3.16-2.65-5.66-6.03-7.5-10.15-1.84-4.11-2.75-9.03-2.75-14.74,0-5.37.92-10.1,2.75-14.18,1.84-4.08,4.35-7.51,7.55-10.3,3.2-2.79,6.94-4.9,11.22-6.32,4.28-1.43,8.91-2.14,13.87-2.14,6.46,0,11.58,1.02,15.35,3.06s5.66,4.73,5.66,8.06c0,1.77-.44,3.3-1.33,4.59-.88,1.29-1.9,2.31-3.06,3.06-1.7-1.02-3.84-2-6.43-2.96-2.58-.95-5.54-1.43-8.87-1.43-2.72,0-5.2.44-7.45,1.33-2.24.88-4.18,2.13-5.81,3.72-1.63,1.6-2.89,3.54-3.77,5.81-.88,2.28-1.33,4.81-1.33,7.6,0,3.06.42,5.75,1.27,8.06s2.04,4.23,3.57,5.76,3.33,2.69,5.41,3.47c2.07.78,4.37,1.17,6.88,1.17,1.5,0,2.81-.14,3.93-.41s1.99-.58,2.6-.92v-9.79h-10.91c-.41-.75-.8-1.73-1.17-2.96-.37-1.22-.56-2.52-.56-3.88,0-2.45.56-4.22,1.68-5.3,1.12-1.09,2.57-1.63,4.33-1.63h17.24c2.04,0,3.62.56,4.74,1.68s1.68,2.7,1.68,4.74v21.01h.01Z"/>
  <path class="st0" d="M88.59,627.74c0,2.11-.37,3.67-1.12,4.69s-1.94,2.01-3.57,2.96c-.95.55-2.14,1.07-3.57,1.58s-2.99.95-4.69,1.33c-1.7.37-3.49.66-5.35.87-1.87.2-3.72.31-5.56.31-4.9,0-9.49-.63-13.77-1.89s-8.01-3.21-11.17-5.87c-3.16-2.65-5.66-6.03-7.5-10.15-1.84-4.11-2.75-9.03-2.75-14.74,0-5.37.92-10.1,2.75-14.18,1.84-4.08,4.35-7.51,7.55-10.3s6.94-4.9,11.22-6.32c4.28-1.43,8.91-2.14,13.87-2.14,6.46,0,11.58,1.02,15.35,3.06s5.66,4.73,5.66,8.06c0,1.77-.44,3.3-1.33,4.59-.88,1.29-1.9,2.31-3.06,3.06-1.7-1.02-3.84-2-6.43-2.96-2.58-.95-5.54-1.43-8.87-1.43-2.72,0-5.2.44-7.45,1.33-2.24.88-4.18,2.13-5.81,3.72-1.63,1.6-2.89,3.54-3.77,5.81-.88,2.28-1.33,4.81-1.33,7.6,0,3.06.42,5.75,1.27,8.06s2.04,4.23,3.57,5.76,3.33,2.69,5.41,3.47c2.07.78,4.37,1.17,6.88,1.17,1.5,0,2.81-.14,3.93-.41s1.99-.58,2.6-.92v-9.79h-10.91c-.41-.75-.8-1.73-1.17-2.96-.37-1.22-.56-2.52-.56-3.88,0-2.45.56-4.22,1.68-5.3,1.12-1.09,2.57-1.63,4.33-1.63h17.24c2.04,0,3.62.56,4.74,1.68s1.68,2.7,1.68,4.74v21.01h.01Z"/>
  <path class="st8" d="M88.59,457.17c0,2.11-.37,3.67-1.12,4.69s-1.94,2.01-3.57,2.96c-.95.55-2.14,1.07-3.57,1.58s-2.99.95-4.69,1.33c-1.7.37-3.49.66-5.35.87-1.87.2-3.72.31-5.56.31-4.9,0-9.49-.63-13.77-1.89s-8.01-3.21-11.17-5.87c-3.16-2.65-5.66-6.03-7.5-10.15-1.84-4.11-2.75-9.03-2.75-14.74,0-5.37.92-10.1,2.75-14.18,1.84-4.08,4.35-7.51,7.55-10.3,3.2-2.79,6.94-4.9,11.22-6.32,4.28-1.43,8.91-2.14,13.87-2.14,6.46,0,11.58,1.02,15.35,3.06s5.66,4.73,5.66,8.06c0,1.77-.44,3.3-1.33,4.59-.88,1.29-1.9,2.31-3.06,3.06-1.7-1.02-3.84-2-6.43-2.96-2.58-.95-5.54-1.43-8.87-1.43-2.72,0-5.2.44-7.45,1.33-2.24.88-4.18,2.13-5.81,3.72-1.63,1.6-2.89,3.54-3.77,5.81-.88,2.28-1.33,4.81-1.33,7.6,0,3.06.42,5.75,1.27,8.06s2.04,4.23,3.57,5.76,3.33,2.69,5.41,3.47c2.07.78,4.37,1.17,6.88,1.17,1.5,0,2.81-.14,3.93-.41s1.99-.58,2.6-.92v-9.79h-10.91c-.41-.75-.8-1.73-1.17-2.96-.37-1.22-.56-2.52-.56-3.88,0-2.45.56-4.22,1.68-5.3,1.12-1.09,2.57-1.63,4.33-1.63h17.24c2.04,0,3.62.56,4.74,1.68s1.68,2.7,1.68,4.74v21.01h.01Z"/>
</svg>